<svg width="313" height="45" viewBox="0 0 313 45" fill="none" xmlns="http://www.w3.org/2000/svg">
<g clip-path="url(#clip0_48_2118)">
<path d="M68.5817 44.3637L69.0947 42.6018C69.7036 40.5076 69.4783 38.5748 68.4523 37.1502C67.4934 35.8395 65.9305 35.0702 64.0176 34.98L27.8066 34.5241C27.693 34.5224 27.5815 34.4936 27.4815 34.4401C27.3816 34.3866 27.2962 34.3099 27.2326 34.2166C27.169 34.1233 27.1292 34.0162 27.1164 33.9043C27.1037 33.7925 27.1184 33.6793 27.1594 33.5743C27.2209 33.3985 27.3333 33.2444 27.4824 33.1313C27.6316 33.0182 27.811 32.9509 27.9984 32.938L64.5594 32.4631C68.8742 32.2684 73.5917 28.7827 75.2362 24.5278L77.3169 19.1331C77.3759 18.9817 77.4052 18.8205 77.4032 18.6582C77.4007 18.5721 77.3911 18.4863 77.3744 18.4018C76.2392 13.3839 73.4797 8.87105 69.5159 5.55021C65.5522 2.22938 60.6015 0.282552 55.4176 0.00615681C50.2337 -0.270238 45.1006 1.13894 40.7999 4.01914C36.4992 6.89933 33.2665 11.0927 31.5941 15.9608C29.8187 14.6537 27.6784 13.9229 25.467 13.8687C23.2556 13.8145 21.0815 14.4396 19.243 15.6581C17.4046 16.8767 15.9919 18.629 15.1989 20.6745C14.406 22.72 14.2716 24.9584 14.8142 27.0826C12.6599 27.1378 10.542 27.6457 8.60074 28.5728C6.65953 29.4998 4.93933 30.8249 3.55409 32.4601C2.16884 34.0953 1.15018 36.0034 0.565557 38.058C-0.0190612 40.1126 -0.156287 42.2668 0.162971 44.3779C0.186069 44.5445 0.269112 44.6973 0.39683 44.8081C0.524549 44.9189 0.688358 44.9803 0.858137 44.981H67.7332C67.923 44.9829 68.1083 44.9237 68.2613 44.8124C68.4143 44.7011 68.5268 44.5436 68.5817 44.3637V44.3637Z" fill="#4b5563"/>
<path d="M80.6489 19.5414C80.3293 19.5414 79.9937 19.5509 79.6421 19.5699C79.5894 19.5713 79.5373 19.5826 79.4887 19.6031C79.4011 19.6319 79.322 19.6816 79.2585 19.7479C79.1949 19.8141 79.1489 19.8949 79.1244 19.983L77.6861 24.8553C77.0724 26.9496 77.2978 28.8823 78.3285 30.307C78.8493 30.9811 79.5198 31.5275 80.2879 31.9038C81.0561 32.2802 81.9014 32.4764 82.7584 32.4772L90.4819 32.9521C90.59 32.9554 90.6957 32.9837 90.7906 33.0349C90.8855 33.086 90.967 33.1585 91.0285 33.2465C91.0937 33.3406 91.1351 33.4488 91.1493 33.562C91.1635 33.6752 91.15 33.7901 91.11 33.8971C91.0485 34.0729 90.9361 34.227 90.787 34.3401C90.6378 34.4532 90.4584 34.5205 90.271 34.5335L82.2502 35.0084C77.8922 35.2078 73.1987 38.6887 71.5542 42.9389L70.9741 44.4395C70.9499 44.5024 70.9409 44.57 70.948 44.6369C70.9551 44.7037 70.9781 44.768 71.015 44.8245C71.0519 44.8809 71.1017 44.928 71.1604 44.9618C71.2192 44.9955 71.2851 45.0151 71.3529 45.0189H98.9822C99.1506 45.0229 99.3154 44.9701 99.4495 44.8691C99.5837 44.7682 99.6792 44.6251 99.7205 44.4633C100.544 41.5477 100.676 38.483 100.105 35.5087C99.5348 32.5344 98.2775 29.731 96.4318 27.3179C94.586 24.9047 92.2018 22.9471 89.4655 21.598C86.7292 20.249 83.715 19.5451 80.6585 19.5414H80.6489Z" fill="#4b5563"/>
<path d="M130.897 28.3315H135.466V40.707H143.458V44.6723H130.897V28.3315Z" fill="#4b5563"/>
<path d="M148.195 36.5661V36.5234C148.195 31.8315 152.031 28.0229 157.103 28.0229C162.175 28.0229 165.963 31.784 165.963 36.4759V36.5234C165.963 41.2152 162.127 45.019 157.055 45.019C151.983 45.019 148.195 41.2437 148.195 36.5661ZM161.298 36.5661V36.5234C161.298 34.149 159.577 32.1117 157.055 32.1117C154.533 32.1117 152.884 34.1157 152.884 36.4759V36.5234C152.884 38.8978 154.605 40.935 157.103 40.935C159.601 40.935 161.298 38.9263 161.298 36.5661" fill="#4b5563"/>
<path d="M171.557 37.5158V28.3315H176.203V37.4113C176.203 39.7857 177.402 40.8922 179.243 40.8922C181.084 40.8922 182.282 39.819 182.282 37.53V28.3315H186.923V37.3876C186.923 42.6635 183.884 44.9857 179.195 44.9857C174.506 44.9857 171.557 42.6113 171.557 37.5158" fill="#4b5563"/>
<path d="M193.923 28.3315H200.285C206.177 28.3315 209.595 31.6937 209.595 36.4046V36.4521C209.595 41.1677 206.129 44.6676 200.194 44.6676H193.923V28.3315ZM200.357 40.6785C203.089 40.6785 204.906 39.1826 204.906 36.5423V36.4995C204.906 33.8829 203.089 32.3633 200.357 32.3633H198.482V40.6595L200.357 40.6785Z" fill="#4b5563"/>
<path d="M216.24 28.3315H229.434V32.3016H220.814V35.0796H228.614V38.836H220.814V44.6723H216.24V28.3315Z" fill="#4b5563"/>
<path d="M235.801 28.3315H240.369V40.707H248.361V44.6723H235.801V28.3315Z" fill="#4b5563"/>
<path d="M260.328 28.2175H264.734L271.738 44.6723H266.839L265.635 41.7565H259.268L258.094 44.6723H253.3L260.328 28.2175ZM264.331 38.2281L262.495 33.5837L260.616 38.2281H264.331Z" fill="#4b5563"/>
<path d="M277.626 28.3315H285.426C287.952 28.3315 289.693 28.9869 290.8 30.1076C291.296 30.606 291.682 31.2011 291.934 31.855C292.186 32.509 292.298 33.2077 292.262 33.9067V33.9542C292.3 35.0378 291.992 36.1057 291.383 37.0066C290.774 37.9074 289.894 38.5956 288.868 38.9737L292.804 44.6723H287.531L284.203 39.724H282.199V44.6723H277.626V28.3315ZM285.215 36.1766C286.773 36.1766 287.67 35.4263 287.67 34.2391V34.1916C287.67 32.9047 286.711 32.2541 285.191 32.2541H282.199V36.1766H285.215Z" fill="#4b5563"/>
<path d="M298.859 28.3315H312.13V32.1828H303.385V34.657H311.305V38.2281H303.385V40.821H312.245V44.6723H298.859V28.3315Z" fill="#4b5563"/>
<path d="M120.887 38.4656C120.575 39.1997 120.048 39.8249 119.375 40.2614C118.702 40.6979 117.914 40.9258 117.109 40.916C114.607 40.916 112.89 38.8598 112.89 36.5044V36.4569C112.89 34.0825 114.564 32.0879 117.061 32.0879C117.918 32.0828 118.755 32.3409 119.457 32.8265C120.159 33.3121 120.693 34.0014 120.983 34.7995H125.777C125.029 30.9102 121.582 28.0182 117.109 28.0182C112.018 28.0182 108.202 31.8173 108.202 36.5186V36.5661C108.202 41.258 111.97 45.019 117.061 45.019C121.414 45.019 124.818 42.2267 125.715 38.4846L120.887 38.4656Z" fill="#4b5563"/>
</g>
<defs>
<clipPath id="clip0_48_2118">
<rect width="312.245" height="45" fill="white"/>
</clipPath>
</defs>
</svg>
